<svg width="349.5" height="84" viewBox="0 0 699 168" fill="none" xmlns="http://www.w3.org/2000/svg">
<rect width="699" height="168" fill="#272727"/>
<path d="M258.594 127.23C253.477 127.23 249.102 125.941 245.469 123.363C241.836 120.785 239.043 117.191 237.09 112.582C235.176 107.934 234.219 102.523 234.219 96.3516V95.1211C234.219 88.3633 235.176 82.4648 237.09 77.4258C239.043 72.3867 241.836 68.4609 245.469 65.6484C249.141 62.8359 253.496 61.4297 258.535 61.4297C262.168 61.4297 265.332 62.1328 268.027 63.5391C270.762 64.9062 273.105 66.8789 275.059 69.457V45.4336L265.742 43.6758V34.5938H275.059H289.824V115.219L298.613 116.977V126H277.051L275.879 118.324C273.887 121.254 271.445 123.48 268.555 125.004C265.703 126.488 262.383 127.23 258.594 127.23ZM262.754 115.57C265.566 115.57 267.988 114.965 270.02 113.754C272.051 112.504 273.73 110.707 275.059 108.363V80.4141C273.77 78.1484 272.09 76.3711 270.02 75.082C267.988 73.7539 265.605 73.0898 262.871 73.0898C259.668 73.0898 257.031 74.0273 254.961 75.9023C252.93 77.7383 251.426 80.3164 250.449 83.6367C249.473 86.918 248.984 90.7461 248.984 95.1211V96.3516C248.984 102.211 250.059 106.879 252.207 110.355C254.395 113.832 257.91 115.57 262.754 115.57ZM305.762 126V116.977L314.551 115.219V73.4414L305.293 71.6836V62.6016H328.145L328.906 70.5703L329.023 71.8594C330.703 68.5 332.754 65.9219 335.176 64.125C337.637 62.3281 340.508 61.4297 343.789 61.4297C344.883 61.4297 346.035 61.5273 347.246 61.7227C348.496 61.918 349.512 62.1328 350.293 62.3672L348.594 76.0195L340.332 75.5508C337.637 75.3945 335.41 75.9219 333.652 77.1328C331.934 78.3438 330.488 80.0234 329.316 82.1719V115.219L338.105 116.977V126H305.762ZM356.328 126V116.977L365.117 115.219V73.4414L355.801 71.6836V62.6016H379.883V115.219L388.613 116.977V126H356.328ZM364.531 48.2461V34.5938H379.883V48.2461H364.531ZM394.355 150.375V141.293L402.91 139.535V73.4414L393.594 71.6836V62.6016H416.152L417.09 70.1016C419.043 67.3281 421.426 65.1992 424.238 63.7148C427.051 62.1914 430.371 61.4297 434.199 61.4297C439.355 61.4297 443.77 62.8359 447.441 65.6484C451.113 68.4609 453.906 72.3867 455.82 77.4258C457.773 82.4648 458.75 88.3633 458.75 95.1211V96.3516C458.75 102.523 457.773 107.934 455.82 112.582C453.867 117.191 451.055 120.785 447.383 123.363C443.75 125.941 439.355 127.23 434.199 127.23C430.566 127.23 427.383 126.605 424.648 125.355C421.914 124.066 419.57 122.191 417.617 119.73V139.535L426.641 141.293V150.375H394.355ZM429.746 115.863C434.59 115.863 438.164 114.086 440.469 110.531C442.812 106.938 443.984 102.211 443.984 96.3516V95.1211C443.984 90.7461 443.457 86.918 442.402 83.6367C441.387 80.3164 439.805 77.7383 437.656 75.9023C435.547 74.0273 432.871 73.0898 429.629 73.0898C426.895 73.0898 424.512 73.7148 422.48 74.9648C420.488 76.1758 418.867 77.8945 417.617 80.1211V109.184C418.867 111.332 420.488 112.992 422.48 114.164C424.473 115.297 426.895 115.863 429.746 115.863ZM497.773 127.23C491.836 127.23 486.68 125.883 482.305 123.188C477.969 120.453 474.609 116.703 472.227 111.938C469.883 107.133 468.711 101.605 468.711 95.3555V93.3047C468.711 87.1719 469.883 81.7031 472.227 76.8984C474.57 72.0938 477.91 68.3242 482.246 65.5898C486.621 62.8164 491.777 61.4297 497.715 61.4297C503.145 61.4297 507.871 62.3086 511.895 64.0664C515.918 65.7852 519.219 67.9336 521.797 70.5117L521.855 87.4453H510.605L508.438 76.2539C507.344 75.1211 505.957 74.2227 504.277 73.5586C502.598 72.8555 500.762 72.5039 498.77 72.5039C495.527 72.5039 492.754 73.3828 490.449 75.1406C488.184 76.8984 486.445 79.3398 485.234 82.4648C484.062 85.5508 483.477 89.1641 483.477 93.3047V95.3555C483.477 99.8086 484.082 103.559 485.293 106.605C486.504 109.652 488.184 111.957 490.332 113.52C492.52 115.082 495.02 115.863 497.832 115.863C501.23 115.863 503.984 114.945 506.094 113.109C508.242 111.273 509.648 108.734 510.312 105.492H523.086L523.262 105.844C522.793 109.984 521.562 113.676 519.57 116.918C517.617 120.121 514.844 122.641 511.25 124.477C507.695 126.312 503.203 127.23 497.773 127.23ZM553.027 127.23C546.582 127.23 541.562 125.57 537.969 122.25C534.375 118.93 532.578 114.359 532.578 108.539C532.578 104.555 533.672 101.059 535.859 98.0508C538.047 95.043 541.25 92.6992 545.469 91.0195C549.688 89.3008 554.805 88.4414 560.82 88.4414H570.488V83.1094C570.488 79.75 569.473 77.0742 567.441 75.082C565.449 73.0898 562.539 72.0938 558.711 72.0938C556.523 72.0938 554.59 72.3672 552.91 72.9141C551.23 73.4219 549.727 74.1641 548.398 75.1406L547.051 83.6953H536.211L536.094 68.0508C539.219 66.0195 542.695 64.418 546.523 63.2461C550.352 62.0352 554.609 61.4297 559.297 61.4297C567.344 61.4297 573.672 63.3242 578.281 67.1133C582.93 70.8633 585.254 76.2539 585.254 83.2852V111.234C585.254 112.094 585.254 112.934 585.254 113.754C585.293 114.574 585.352 115.375 585.43 116.156L591.875 116.977V126H572.598C572.207 124.633 571.836 123.305 571.484 122.016C571.172 120.727 570.938 119.438 570.781 118.148C568.672 120.805 566.113 122.992 563.105 124.711C560.137 126.391 556.777 127.23 553.027 127.23ZM556.367 115.805C559.336 115.805 562.109 115.121 564.688 113.754C567.266 112.348 569.199 110.59 570.488 108.48V97.875H560.645C556.23 97.875 552.891 98.9102 550.625 100.98C548.398 103.012 547.285 105.395 547.285 108.129C547.285 110.59 548.066 112.484 549.629 113.812C551.191 115.141 553.438 115.805 556.367 115.805ZM598.32 126V116.977L607.168 115.219V45.4336L597.793 43.6758V34.5938H621.875V115.219L630.723 116.977V126H598.32ZM666.523 127.23C660.586 127.23 655.43 125.883 651.055 123.188C646.719 120.453 643.359 116.703 640.977 111.938C638.633 107.133 637.461 101.605 637.461 95.3555V93.3047C637.461 87.1719 638.633 81.7031 640.977 76.8984C643.32 72.0938 646.66 68.3242 650.996 65.5898C655.371 62.8164 660.527 61.4297 666.465 61.4297C671.895 61.4297 676.621 62.3086 680.645 64.0664C684.668 65.7852 687.969 67.9336 690.547 70.5117L690.605 87.4453H679.355L677.188 76.2539C676.094 75.1211 674.707 74.2227 673.027 73.5586C671.348 72.8555 669.512 72.5039 667.52 72.5039C664.277 72.5039 661.504 73.3828 659.199 75.1406C656.934 76.8984 655.195 79.3398 653.984 82.4648C652.812 85.5508 652.227 89.1641 652.227 93.3047V95.3555C652.227 99.8086 652.832 103.559 654.043 106.605C655.254 109.652 656.934 111.957 659.082 113.52C661.27 115.082 663.77 115.863 666.582 115.863C669.98 115.863 672.734 114.945 674.844 113.109C676.992 111.273 678.398 108.734 679.062 105.492H691.836L692.012 105.844C691.543 109.984 690.312 113.676 688.32 116.918C686.367 120.121 683.594 122.641 680 124.477C676.445 126.312 671.953 127.23 666.523 127.23Z" fill="white"/>
<g clip-path="url(#clip0_53_2)">
<path d="M116.659 9H13.9991C6.5329 9 0 15.5625 0 23.0625V144.938C0 152.438 6.5329 159 13.9991 159H116.659C124.125 159 130.658 152.438 130.658 144.938V23.0625C130.658 15.5625 124.125 9 116.659 9ZM37.3308 136.5C37.3308 138.375 35.4643 140.25 33.5977 140.25H22.3985C20.532 140.25 18.6654 138.375 18.6654 136.5V125.25C18.6654 123.375 20.532 121.5 22.3985 121.5H33.5977C35.4643 121.5 37.3308 123.375 37.3308 125.25V136.5V136.5ZM37.3308 99C37.3308 100.875 35.4643 102.75 33.5977 102.75H22.3985C20.532 102.75 18.6654 100.875 18.6654 99V87.75C18.6654 85.875 20.532 84 22.3985 84H33.5977C35.4643 84 37.3308 85.875 37.3308 87.75V99V99ZM74.6617 136.5C74.6617 138.375 72.7951 140.25 70.9286 140.25H59.7293C57.8628 140.25 55.9962 138.375 55.9962 136.5V125.25C55.9962 123.375 57.8628 121.5 59.7293 121.5H70.9286C72.7951 121.5 74.6617 123.375 74.6617 125.25V136.5ZM74.6617 99C74.6617 100.875 72.7951 102.75 70.9286 102.75H59.7293C57.8628 102.75 55.9962 100.875 55.9962 99V87.75C55.9962 85.875 57.8628 84 59.7293 84H70.9286C72.7951 84 74.6617 85.875 74.6617 87.75V99ZM111.992 136.5C111.992 138.375 110.126 140.25 108.259 140.25H97.0602C95.1936 140.25 93.3271 138.375 93.3271 136.5V87.75C93.3271 85.875 95.1936 84 97.0602 84H108.259C110.126 84 111.992 85.875 111.992 87.75V136.5V136.5ZM111.992 61.5C111.992 63.375 110.126 65.25 108.259 65.25H22.3985C20.532 65.25 18.6654 63.375 18.6654 61.5V31.5C18.6654 29.625 20.532 27.75 22.3985 27.75H108.259C110.126 27.75 111.992 29.625 111.992 31.5V61.5Z" fill="#147CBD"/>
</g>
<path d="M99.8684 94.2632H167.368L161.842 147.553H116.053L99.8684 94.2632Z" fill="#B1E1FF"/>
<path d="M149.375 16.1761C147.078 7.85542 135.071 7.46801 132.467 16.1761C118.935 61.7867 90 74.181 90 106.328C90 134.788 112.776 157.816 140.921 157.816C169.067 157.816 191.842 134.788 191.842 106.328C191.842 74.0191 162.97 61.9949 149.375 16.1761ZM140.921 139.313C123.055 139.313 108.517 124.785 108.517 106.932C108.517 104.376 110.588 102.306 113.146 102.306C115.704 102.306 117.775 104.376 117.775 106.932C117.775 119.685 128.159 130.061 140.921 130.061C143.479 130.061 145.55 132.131 145.55 134.687C145.55 137.242 143.479 139.313 140.921 139.313Z" fill="#68C1F9"/>
<defs>
<clipPath id="clip0_53_2">
<rect width="130.658" height="150" fill="white" transform="translate(0 9)"/>
</clipPath>
</defs>
</svg>
