<svg width="512" height="512" viewBox="0 0 512 512" fill="none" xmlns="http://www.w3.org/2000/svg">
<path d="M321.536 66H61.4643C42.55 66 26 82.625 26 101.625V410.375C26 429.375 42.55 446 61.4643 446H321.536C340.45 446 357 429.375 357 410.375V101.625C357 82.625 340.45 66 321.536 66ZM120.571 389C120.571 393.75 115.843 398.5 111.114 398.5H82.7429C78.0143 398.5 73.2857 393.75 73.2857 389V360.5C73.2857 355.75 78.0143 351 82.7429 351H111.114C115.843 351 120.571 355.75 120.571 360.5V389V389ZM120.571 294C120.571 298.75 115.843 303.5 111.114 303.5H82.7429C78.0143 303.5 73.2857 298.75 73.2857 294V265.5C73.2857 260.75 78.0143 256 82.7429 256H111.114C115.843 256 120.571 260.75 120.571 265.5V294V294ZM215.143 389C215.143 393.75 210.414 398.5 205.686 398.5H177.314C172.586 398.5 167.857 393.75 167.857 389V360.5C167.857 355.75 172.586 351 177.314 351H205.686C210.414 351 215.143 355.75 215.143 360.5V389ZM215.143 294C215.143 298.75 210.414 303.5 205.686 303.5H177.314C172.586 303.5 167.857 298.75 167.857 294V265.5C167.857 260.75 172.586 256 177.314 256H205.686C210.414 256 215.143 260.75 215.143 265.5V294ZM309.714 389C309.714 393.75 304.986 398.5 300.257 398.5H271.886C267.157 398.5 262.429 393.75 262.429 389V265.5C262.429 260.75 267.157 256 271.886 256H300.257C304.986 256 309.714 260.75 309.714 265.5V389V389ZM309.714 199C309.714 203.75 304.986 208.5 300.257 208.5H82.7429C78.0143 208.5 73.2857 203.75 73.2857 199V123C73.2857 118.25 78.0143 113.5 82.7429 113.5H300.257C304.986 113.5 309.714 118.25 309.714 123V199Z" fill="#124695"/>
<path d="M279 282H450L436 417H320L279 282Z" fill="#A8CBFF"/>
<path d="M404.417 84.1794C398.597 63.1004 368.18 62.1189 361.583 84.1794C327.303 199.726 254 231.125 254 312.563C254 384.663 311.698 443 383 443C454.302 443 512 384.663 512 312.563C512 230.715 438.858 200.254 404.417 84.1794V84.1794ZM383 396.125C337.74 396.125 300.909 359.321 300.909 314.094C300.909 307.619 306.157 302.375 312.636 302.375C319.116 302.375 324.364 307.619 324.364 314.094C324.364 346.401 350.669 372.688 383 372.688C389.479 372.688 394.727 377.932 394.727 384.406C394.727 390.881 389.479 396.125 383 396.125Z" fill="#589BFF"/>
</svg>
